<svg id="clapperboard" xmlns="http://www.w3.org/2000/svg" width="48" height="48.037" viewBox="0 0 48 48.037">
  <g id="Group_31" data-name="Group 31" transform="translate(1.948 28.014)">
    <g id="Group_30" data-name="Group 30">
      <path id="Path_43" data-name="Path 43" d="M20.949,298.483V313.5a5.011,5.011,0,0,0,5.006,5.006H62A5.01,5.01,0,0,0,67,313.5V298.483Z" transform="translate(-20.949 -298.483)" fill="#fff"/>
    </g>
  </g>
  <g id="Group_33" data-name="Group 33" transform="translate(16.212 4.578)">
    <g id="Group_32" data-name="Group 32">
      <path id="Path_44" data-name="Path 44" d="M180.42,48.776l-7.493,1.778L179.2,59.79l8.115-1.846Z" transform="translate(-172.927 -48.776)" fill="#fff"/>
    </g>
  </g>
  <g id="Group_35" data-name="Group 35" transform="translate(6.054 6.851)">
    <g id="Group_34" data-name="Group 34">
      <path id="Path_45" data-name="Path 45" d="M72.778,72.99,64.7,74.9l6.211,9.15,8.127-1.848Z" transform="translate(-64.703 -72.99)" fill="#fff"/>
    </g>
  </g>
  <g id="Group_37" data-name="Group 37" transform="translate(35.946 0)">
    <g id="Group_36" data-name="Group 36" transform="translate(0 0)">
      <path id="Path_46" data-name="Path 46" d="M395.21,8.737l-1.7-6.463a3.024,3.024,0,0,0-3.59-2.2l-6.728,1.6,6.383,9.411,4.892-1.113a1,1,0,0,0,.635-.458A1.009,1.009,0,0,0,395.21,8.737Z" transform="translate(-383.188 -0.001)" fill="#fff"/>
    </g>
  </g>
  <g id="Group_39" data-name="Group 39" transform="translate(25.831 2.167)">
    <g id="Group_38" data-name="Group 38">
      <path id="Path_47" data-name="Path 47" d="M283.444,23.091,275.413,25l6.912,9.188,7.49-1.7Z" transform="translate(-275.413 -23.091)" fill="#fff"/>
    </g>
  </g>
  <g id="Group_41" data-name="Group 41" transform="translate(8.833 18.005)">
    <g id="Group_40" data-name="Group 40">
      <path id="Path_48" data-name="Path 48" d="M97.518,191.838l-3.2,8.007h7.855l3.2-8.007Z" transform="translate(-94.314 -191.838)" fill="#fff"/>
    </g>
  </g>
  <g id="Group_43" data-name="Group 43" transform="translate(18.845 18.005)">
    <g id="Group_42" data-name="Group 42">
      <path id="Path_49" data-name="Path 49" d="M204.185,191.838l-3.2,8.007h7.855l3.2-8.007Z" transform="translate(-200.981 -191.838)" fill="#fff"/>
    </g>
  </g>
  <g id="Group_45" data-name="Group 45" transform="translate(38.867 18.005)">
    <g id="Group_44" data-name="Group 44">
      <path id="Path_50" data-name="Path 50" d="M422.446,191.838h-4.928l-3.2,8.009h9.132v-7.008A1,1,0,0,0,422.446,191.838Z" transform="translate(-414.315 -191.838)" fill="#fff"/>
    </g>
  </g>
  <g id="Group_47" data-name="Group 47" transform="translate(28.856 18.005)">
    <g id="Group_46" data-name="Group 46">
      <path id="Path_51" data-name="Path 51" d="M310.851,191.838l-3.2,8.007H315.5l3.206-8.007Z" transform="translate(-307.647 -191.838)" fill="#fff"/>
    </g>
  </g>
  <g id="Group_49" data-name="Group 49" transform="translate(0 9.261)">
    <g id="Group_48" data-name="Group 48" transform="translate(0)">
      <path id="Path_52" data-name="Path 52" d="M4.17,98.675l-1.632.386A3,3,0,0,0,.289,102.72l1.856,7.336v5.37H6.875l3.005-7.51.489-.11Z" transform="translate(-0.198 -98.675)" fill="#fff"/>
    </g>
  </g>
</svg>
