<svg xmlns="http://www.w3.org/2000/svg" width="108.041" height="71.392" viewBox="0 0 108.041 71.392">
  <path id="Icon_ionic-md-eye" data-name="Icon ionic-md-eye" d="M56.271,7.383A58.093,58.093,0,0,0,2.25,43.079a58.093,58.093,0,0,0,54.021,35.7A58.741,58.741,0,0,0,98.949,60.59a56.368,56.368,0,0,0,11.343-17.512A58.093,58.093,0,0,0,56.271,7.383Zm0,59.5c-13.505,0-24.55-10.709-24.55-23.805s11.045-23.805,24.55-23.805,24.55,10.709,24.55,23.805S69.776,66.884,56.271,66.884Zm0-38.084A14.559,14.559,0,0,0,41.536,43.079a14.742,14.742,0,0,0,29.47,0A14.559,14.559,0,0,0,56.271,28.8Z" transform="translate(-2.25 -7.383)" fill="#fff"/>
</svg>
