<svg id="menu" xmlns="http://www.w3.org/2000/svg" width="63" height="32.423" viewBox="0 0 63 32.423">
  <g id="Menu_1_">
    <path id="Path_12" data-name="Path 12" d="M1.25,100.3h37.5c.69,0,1.25-.908,1.25-2.026s-.56-2.026-1.25-2.026H1.25c-.69,0-1.25.908-1.25,2.026S.56,100.3,1.25,100.3Z" transform="translate(23 -96.243)" fill="#fff"/>
    <path id="Path_13" data-name="Path 13" d="M61.031,180.455H1.969a2.027,2.027,0,0,0,0,4.053H61.031a2.027,2.027,0,0,0,0-4.053Z" transform="translate(0 -166.27)" fill="#fff"/>
    <path id="Path_14" data-name="Path 14" d="M158.485,264.667H122.121a2.038,2.038,0,0,0,0,4.053h36.364a2.038,2.038,0,0,0,0-4.053Z" transform="translate(-97.303 -236.297)" fill="#fff"/>
  </g>
</svg>
