<svg xmlns="http://www.w3.org/2000/svg" width="102.572" height="71.8" viewBox="0 0 102.572 71.8">
  <path id="Icon_awesome-money-check-alt" data-name="Icon awesome-money-check-alt" d="M97.443,2.25H5.129A5.129,5.129,0,0,0,0,7.379V68.922A5.129,5.129,0,0,0,5.129,74.05H97.443a5.129,5.129,0,0,0,5.129-5.129V7.379A5.129,5.129,0,0,0,97.443,2.25ZM28.207,49.67v2.584a1.282,1.282,0,0,1-1.282,1.282H24.361a1.282,1.282,0,0,1-1.282-1.282V49.643a9.177,9.177,0,0,1-5.028-1.819,1.284,1.284,0,0,1-.091-1.946l1.883-1.8a1.315,1.315,0,0,1,1.624-.117,3.859,3.859,0,0,0,2.055.6h4.505a2.015,2.015,0,0,0,1.891-2.114,2.092,2.092,0,0,0-1.406-2.04L21.3,38.243a7.253,7.253,0,0,1-5.061-6.954,7.137,7.137,0,0,1,6.839-7.223V21.482A1.282,1.282,0,0,1,24.359,20.2h2.564a1.282,1.282,0,0,1,1.282,1.282v2.611a9.164,9.164,0,0,1,5.028,1.819,1.284,1.284,0,0,1,.091,1.946l-1.883,1.8a1.315,1.315,0,0,1-1.624.117,3.844,3.844,0,0,0-2.055-.6H23.258a2.015,2.015,0,0,0-1.891,2.114,2.092,2.092,0,0,0,1.406,2.04l7.212,2.164a7.253,7.253,0,0,1,5.061,6.954A7.136,7.136,0,0,1,28.207,49.67Zm38.464-2.545a1.282,1.282,0,0,1-1.282,1.282H47.439a1.282,1.282,0,0,1-1.282-1.282V44.561a1.282,1.282,0,0,1,1.282-1.282H65.39a1.282,1.282,0,0,1,1.282,1.282Zm25.643,0a1.282,1.282,0,0,1-1.282,1.282H78.211a1.282,1.282,0,0,1-1.282-1.282V44.561a1.282,1.282,0,0,1,1.282-1.282H91.033a1.282,1.282,0,0,1,1.282,1.282Zm0-15.386a1.282,1.282,0,0,1-1.282,1.282H47.439a1.282,1.282,0,0,1-1.282-1.282V29.175a1.282,1.282,0,0,1,1.282-1.282H91.033a1.282,1.282,0,0,1,1.282,1.282Z" transform="translate(0 -2.25)" fill="#fff"/>
</svg>
