<svg xmlns="http://www.w3.org/2000/svg" width="28.126" height="34.616" viewBox="0 0 28.126 34.616">
  <g id="trash" transform="translate(-48)">
    <path id="Path_26" data-name="Path 26" d="M73.421,4.327h-5.95V3.245A3.245,3.245,0,0,0,64.226,0H59.9a3.245,3.245,0,0,0-3.245,3.245V4.327H50.7a2.7,2.7,0,0,0-2.7,2.7V9.195a1.082,1.082,0,0,0,1.082,1.082H75.044a1.082,1.082,0,0,0,1.082-1.082V7.031A2.7,2.7,0,0,0,73.421,4.327Zm-14.6-1.082A1.083,1.083,0,0,1,59.9,2.164h4.327a1.083,1.083,0,0,1,1.082,1.082V4.327H58.818Z" fill="#fff"/>
    <path id="Path_27" data-name="Path 27" d="M73.7,184a.338.338,0,0,0-.338.354l.892,18.731a3.241,3.241,0,0,0,3.241,3.091H93.926a3.241,3.241,0,0,0,3.241-3.091l.892-18.731a.338.338,0,0,0-.338-.354Zm16.337,2.7a1.082,1.082,0,0,1,2.164,0v14.063a1.082,1.082,0,0,1-2.164,0Zm-5.409,0a1.082,1.082,0,1,1,2.164,0v14.063a1.082,1.082,0,1,1-2.164,0Zm-5.409,0a1.082,1.082,0,1,1,2.164,0v14.063a1.082,1.082,0,1,1-2.164,0Z" transform="translate(-23.649 -171.56)" fill="#fff"/>
  </g>
</svg>
