<svg id="Group_5" data-name="Group 5" xmlns="http://www.w3.org/2000/svg" width="48.282" height="48" viewBox="0 0 48.282 48">
  <path id="Path_16" data-name="Path 16" d="M55.964,32.346l-7.542-1.4a1.636,1.636,0,0,1-1.383-1.568V27.77a18.158,18.158,0,0,0,1.445-2.387,13.637,13.637,0,0,1,1.173-1.933,10.285,10.285,0,0,0,3.5-5.123,4.5,4.5,0,0,0-.5-3.757,26.279,26.279,0,0,0-.586-6.493c-.059-2.493-.552-3.9-1.79-5.155a5.572,5.572,0,0,0-3.2-1.245,5.911,5.911,0,0,1-1.169-.253A12.873,12.873,0,0,0,40.076,0C35.523.16,29.936,2.838,28.067,7.654c-.569,1.462-.514,3.862-.472,5.792l-.048,1.123a4.77,4.77,0,0,0-.435,3.754,10.247,10.247,0,0,0,3.49,5.123,13.873,13.873,0,0,1,1.186,1.942,19.1,19.1,0,0,0,1.455,2.384v1.6a1.636,1.636,0,0,1-1.386,1.568l-7.542,1.4A9.833,9.833,0,0,0,16,41.757V44.8A3.337,3.337,0,0,0,19.449,48H60.833a3.337,3.337,0,0,0,3.449-3.2V41.757A9.833,9.833,0,0,0,55.964,32.346Z" transform="translate(-16)" fill="#fff"/>
</svg>
