<svg id="Group_4" data-name="Group 4" xmlns="http://www.w3.org/2000/svg" width="67.2" height="72" viewBox="0 0 67.2 72">
  <path id="Path_15" data-name="Path 15" d="M71.622,48.518l-10.5-2.1A2.4,2.4,0,0,1,59.2,44.064v-2.41a27.716,27.716,0,0,0,2.011-3.581,20.8,20.8,0,0,1,1.632-2.9c2.035-1.992,4.2-4.464,4.867-7.685a7.184,7.184,0,0,0-.7-5.635,42.392,42.392,0,0,0-.816-9.739c-.082-3.739-.768-5.851-2.491-7.733-1.219-1.315-3.014-1.622-4.454-1.867a7.723,7.723,0,0,1-1.627-.379A16.888,16.888,0,0,0,49.509,0C43.173.24,35.4,4.258,32.8,11.482c-.792,2.194-.715,5.794-.658,8.688l-.067,1.685a7.637,7.637,0,0,0-.6,5.63c.662,3.235,2.832,5.7,4.858,7.685a21.149,21.149,0,0,1,1.651,2.914A29.127,29.127,0,0,0,40,41.659v2.4a2.4,2.4,0,0,1-1.93,2.352l-10.5,2.1A14.433,14.433,0,0,0,16,62.635V67.2A4.808,4.808,0,0,0,20.8,72H78.4a4.808,4.808,0,0,0,4.8-4.8V62.635A14.432,14.432,0,0,0,71.622,48.518ZM78.4,67.2H20.8V62.635a9.623,9.623,0,0,1,7.718-9.413l10.493-2.1A7.206,7.206,0,0,0,44.8,44.064V40.8a2.4,2.4,0,0,0-.715-1.709A20.825,20.825,0,0,1,42.251,35.9a17.069,17.069,0,0,0-2.568-4.157c-1.594-1.555-3.115-3.264-3.518-5.222a3.037,3.037,0,0,1,.182-2.486,4.6,4.6,0,0,0,.61-2.179l-.024-1.781c-.043-2.1-.115-5.611.374-6.965C39.17,7.944,45.078,4.973,49.538,4.8A11.733,11.733,0,0,1,55.3,6.336a9.872,9.872,0,0,0,3.154.912,9.285,9.285,0,0,1,1.723.384c.648.706,1.186,1.555,1.224,4.858a2.27,2.27,0,0,0,.1.643c.715,2.453.715,6.686.715,8.722a4.651,4.651,0,0,0,.61,2.179A3.046,3.046,0,0,1,63,26.525c-.4,1.949-1.93,3.662-3.518,5.218a16.864,16.864,0,0,0-2.558,4.171,19.942,19.942,0,0,1-1.8,3.173A2.4,2.4,0,0,0,54.4,40.8v3.264a7.215,7.215,0,0,0,5.789,7.061l10.5,2.1A9.614,9.614,0,0,1,78.4,62.635Z" transform="translate(-16)" fill="#fff"/>
</svg>
